<svg xmlns="http://www.w3.org/2000/svg" width="512" height="512" viewBox="0 0 512 512">
  <defs>
    <radialGradient id="bg" cx="50%" cy="50%" r="50%">
      <stop offset="0%" stop-color="#1a1a3e"/>
      <stop offset="100%" stop-color="#0f0c29"/>
    </radialGradient>
  </defs>
  <rect width="512" height="512" fill="url(#bg)" rx="100"/>
  <circle cx="256" cy="256" r="195" fill="none" stroke="#d4af37" stroke-width="5" opacity="0.6"/>
  <circle cx="256" cy="256" r="160" fill="none" stroke="#d4af37" stroke-width="2.5" opacity="0.25"/>
  <!-- 8-pointed star -->
  <polygon points="256,166 275,220 332,220 286,252 304,306 256,274 208,306 226,252 180,220 237,220" fill="#d4af37" opacity="0.9"/>
  <polygon points="256,166 275,220 332,220 286,252 304,306 256,274 208,306 226,252 180,220 237,220" fill="#d4af37" opacity="0.9" transform="rotate(36, 256, 245)"/>
  <circle cx="256" cy="245" r="14" fill="#0f0c29"/>
  <text x="256" y="375" text-anchor="middle" font-family="serif" font-size="42" fill="#d4af37" opacity="0.7">تسبيح</text>
</svg>
